<svg width="130" height="44" viewBox="0 0 130 44" fill="none" xmlns="http://www.w3.org/2000/svg">
<path d="M64.0856 17.2588H61.0358C61.0235 18.5926 60.7585 19.6269 60.241 20.3617C59.7357 21.0964 58.9717 21.4638 57.9489 21.4638C57.7887 21.4638 57.339 21.4412 56.5996 21.396V19.3613L57.2281 19.3952C57.6717 19.3952 58.0044 19.2313 58.2262 18.9035C58.448 18.587 58.5589 18.1348 58.5589 17.5471V8.78107H61.0358V15.1902H64.0856V17.2588Z" fill="#A9006A"/>
<path d="M79.119 15.1902V17.2588H64.0914V15.1902H65.6441V5.38998H68.1209V11.494C68.6755 10.8609 69.1745 10.3466 69.6182 9.951C70.0741 9.55537 70.604 9.23322 71.2078 8.98454C71.8116 8.73586 72.5078 8.61152 73.2965 8.61152C74.8491 8.61152 75.9459 9.05236 76.5866 9.93405C77.2397 10.8044 77.5663 11.8274 77.5663 13.003V15.1902H79.119ZM72.742 10.6801C71.9287 10.6801 71.177 10.9853 70.4869 11.5957C69.7968 12.2061 69.23 12.8843 68.7864 13.6303C68.3428 14.3651 68.1209 14.8342 68.1209 15.0376V15.1902H75.0894V13.4438C75.0894 12.6639 74.8799 12.0083 74.461 11.477C74.0543 10.9457 73.4813 10.6801 72.742 10.6801Z" fill="#A9006A"/>
<path d="M89.4234 9.01845V17.2588H79.1278V15.1902H81.1056C80.8961 14.5007 80.7913 13.7208 80.7913 12.8504C80.7913 11.8218 80.9638 11.0135 81.3089 10.4258C81.6662 9.83797 82.2023 9.41973 82.917 9.17105C83.6317 8.92237 84.5744 8.79803 85.7451 8.79803C86.7802 8.79803 87.6859 8.83759 88.4622 8.91672L89.4234 9.01845ZM83.3052 13.2743C83.3052 13.7038 83.336 14.0542 83.3976 14.3255C83.4592 14.5855 83.5454 14.8737 83.6564 15.1902H86.9465V10.8666C86.4043 10.8327 85.9792 10.8157 85.6711 10.8157C85.0057 10.8157 84.5066 10.8836 84.1739 11.0192C83.8535 11.1548 83.6255 11.3922 83.49 11.7313C83.3668 12.0704 83.3052 12.5848 83.3052 13.2743ZM82.9355 5.08478H84.8393V7.20421H82.9355V5.08478ZM85.7451 5.08478H87.6489V7.20421H85.7451V5.08478Z" fill="#A9006A"/>
<path d="M98.6127 8.3911C99.5985 8.3911 100.461 8.61717 101.2 9.06932C101.952 9.51016 102.531 10.1771 102.938 11.0701C103.357 11.9631 103.566 13.0595 103.566 14.3594V17.2588H95.1562V15.1902H101.09V14.5798C101.09 13.1104 100.788 12.0648 100.184 11.4431C99.58 10.8101 98.8591 10.4936 98.0212 10.4936H96.1543L95.9695 8.71325C96.3515 8.63413 96.7828 8.56065 97.2634 8.49283C97.7563 8.42501 98.206 8.3911 98.6127 8.3911Z" fill="#A9006A"/>
<path d="M105.607 5.38998H108.084V17.2588H105.607V5.38998Z" fill="#A9006A"/>
<path d="M117.967 17.2588H114.917C114.905 18.5926 114.64 19.6269 114.123 20.3617C113.617 21.0964 112.853 21.4638 111.831 21.4638C111.67 21.4638 111.221 21.4412 110.481 21.396V19.3613L111.11 19.3952C111.553 19.3952 111.886 19.2313 112.108 18.9035C112.33 18.587 112.441 18.1348 112.441 17.5471V8.78107H114.917V15.1902H117.967V17.2588ZM112.533 5H114.807V7.20421H112.533V5Z" fill="#A9006A"/>
<path d="M124.923 8.62847C126.192 8.62847 127.166 8.79803 127.844 9.13714C128.534 9.47625 128.996 9.95665 129.23 10.5784C129.476 11.2001 129.6 12.0139 129.6 13.0199V17.2588H117.973V15.1902H120.857C120.684 14.3764 120.598 13.6586 120.598 13.0369C120.598 12.4152 120.666 11.7483 120.801 11.0362C120.937 10.324 121.091 9.70797 121.263 9.188C121.596 9.04106 122.089 8.91107 122.742 8.79803C123.395 8.68499 124.122 8.62847 124.923 8.62847ZM123.001 13.0369C123.001 13.4212 123.025 13.8169 123.075 14.2238C123.136 14.6194 123.198 14.9416 123.26 15.1902H127.123V12.9691C127.123 12.1778 126.95 11.5957 126.605 11.2227C126.272 10.8496 125.626 10.6631 124.664 10.6631C124.196 10.6631 123.728 10.7083 123.26 10.7988C123.087 11.6465 123.001 12.3926 123.001 13.0369Z" fill="#A9006A"/>
<path d="M66.2846 25.2808V35.7441H65.5419V26.0464H65.3636L61.9174 35.3988H60.9668L57.5057 26.0464H57.3423V35.7441H56.5996V25.2808H58.0405L61.4421 34.5581L64.8437 25.2808H66.2846Z" fill="#70164A"/>
<path d="M68.2755 34.6182L74.1281 26.3166V25.9563H68.2755V25.2808H74.9599V26.4367L69.0777 34.7533V35.0685H74.9599V35.7591H68.2755V34.6182Z" fill="#70164A"/>
<path d="M82.4032 32.7117H77.635L76.7437 35.7441H76.0159L79.0759 25.2808H80.9623L84.0223 35.7441H83.2945L82.4032 32.7117ZM80.4127 25.9563H79.6403L77.8281 32.0061H82.2101L80.4127 25.9563Z" fill="#70164A"/>
<path d="M89.5447 25.2808C90.9807 25.2808 91.9363 25.7661 92.4116 26.7369C92.8869 27.7077 93.1246 28.8686 93.1246 30.2197C93.1246 32.1112 92.8077 33.5073 92.1739 34.408C91.5501 35.2987 90.6737 35.7441 89.5447 35.7441H85.7569V25.2808H89.5447ZM89.5447 35.0685C90.0993 35.0685 90.5895 34.8934 91.0153 34.5431C91.4411 34.1928 91.7729 33.6724 92.0105 32.9819C92.2482 32.2813 92.3671 31.4256 92.3671 30.4148C92.3671 28.9036 92.1145 27.7827 91.6095 27.0522C91.1143 26.3216 90.4261 25.9563 89.5447 25.9563H86.4996V35.0685H89.5447Z" fill="#70164A"/>
<path d="M99.5482 35.8792C99.4491 35.9092 99.2313 35.9242 98.8946 35.9242C97.8647 35.9242 97.0427 35.7391 96.4288 35.3688C95.8247 34.9985 95.384 34.433 95.1067 33.6724C94.8394 32.9118 94.7057 31.916 94.7057 30.6851C94.7057 29.4541 94.8394 28.4533 95.1067 27.6827C95.384 26.902 95.8296 26.3216 96.4436 25.9413C97.0576 25.551 97.8746 25.3558 98.8946 25.3558C99.9146 25.3558 100.732 25.551 101.346 25.9413C101.96 26.3216 102.4 26.902 102.668 27.6827C102.945 28.4633 103.083 29.4691 103.083 30.7001C103.083 32.9218 102.564 34.418 101.524 35.1886L102.757 37.2002L100.885 38.0859L99.5482 35.8792ZM98.8946 34.1228C99.4293 34.1228 99.8452 34.0127 100.142 33.7925C100.449 33.5623 100.662 33.202 100.781 32.7117C100.91 32.2213 100.974 31.5507 100.974 30.7001C100.974 29.8494 100.91 29.1688 100.781 28.6584C100.652 28.148 100.434 27.7727 100.127 27.5325C99.8304 27.2824 99.4194 27.1573 98.8946 27.1573C98.3697 27.1573 97.9538 27.2824 97.6468 27.5325C97.3497 27.7727 97.1368 28.148 97.0081 28.6584C96.8793 29.1688 96.815 29.8494 96.815 30.7001C96.815 31.4907 96.8694 32.1312 96.9784 32.6216C97.0873 33.102 97.2903 33.4723 97.5874 33.7325C97.8944 33.9927 98.3301 34.1228 98.8946 34.1228Z" fill="#70164A"/>
<path d="M106.475 35.9242C104.94 35.9242 104.173 35.1036 104.173 33.4623C104.173 32.6816 104.376 32.1212 104.782 31.7809C105.198 31.4306 105.861 31.2255 106.772 31.1654L108.362 31.0453V30.58C108.362 30.2797 108.293 30.0696 108.154 29.9495C108.025 29.8294 107.802 29.7693 107.485 29.7693C107.159 29.7693 106.708 29.7843 106.134 29.8144C105.559 29.8344 105.079 29.8594 104.693 29.8894L104.633 28.4933C105.703 28.2031 106.713 28.058 107.664 28.058C108.614 28.058 109.298 28.2581 109.714 28.6584C110.139 29.0588 110.352 29.6993 110.352 30.58V33.7024C110.372 33.9526 110.412 34.1228 110.471 34.2129C110.54 34.3029 110.664 34.368 110.843 34.408L110.783 35.9242C110.268 35.9242 109.857 35.8892 109.55 35.8191C109.253 35.7491 108.956 35.609 108.659 35.3988C107.936 35.7491 107.208 35.9242 106.475 35.9242ZM106.906 34.2879C107.282 34.2879 107.693 34.2279 108.139 34.1078L108.362 34.0477V32.4414L107.01 32.5615C106.456 32.6116 106.178 32.9118 106.178 33.4623C106.178 34.0127 106.421 34.2879 106.906 34.2879Z" fill="#70164A"/>
<path d="M114.775 35.9242C114.201 35.9242 113.755 35.8341 113.438 35.654C113.121 35.4739 112.894 35.1786 112.755 34.7683C112.616 34.358 112.547 33.7925 112.547 33.0719V29.9495H111.671V28.2381H112.547V26.1515H114.537V28.2381H116.364V29.9495H114.537V33.0269C114.537 33.4172 114.572 33.7024 114.641 33.8826C114.711 34.0527 114.884 34.1328 115.161 34.1228L116.29 34.0928L116.379 35.699C115.983 35.7891 115.671 35.8491 115.443 35.8792C115.226 35.9092 115.003 35.9242 114.775 35.9242Z" fill="#70164A"/>
<path d="M119.473 35.9242C117.938 35.9242 117.17 35.1036 117.17 33.4623C117.17 32.6816 117.373 32.1212 117.779 31.7809C118.195 31.4306 118.859 31.2255 119.77 31.1654L121.359 31.0453V30.58C121.359 30.2797 121.29 30.0696 121.151 29.9495C121.023 29.8294 120.8 29.7693 120.483 29.7693C120.156 29.7693 119.706 29.7843 119.131 29.8144C118.557 29.8344 118.077 29.8594 117.69 29.8894L117.631 28.4933C118.7 28.2031 119.71 28.058 120.661 28.058C121.612 28.058 122.295 28.2581 122.711 28.6584C123.137 29.0588 123.35 29.6993 123.35 30.58V33.7024C123.37 33.9526 123.409 34.1228 123.469 34.2129C123.538 34.3029 123.662 34.368 123.84 34.408L123.781 35.9242C123.266 35.9242 122.855 35.8892 122.548 35.8191C122.251 35.7491 121.953 35.609 121.656 35.3988C120.934 35.7491 120.206 35.9242 119.473 35.9242ZM119.904 34.2879C120.28 34.2879 120.691 34.2279 121.137 34.1078L121.359 34.0477V32.4414L120.008 32.5615C119.453 32.6116 119.176 32.9118 119.176 33.4623C119.176 34.0127 119.418 34.2879 119.904 34.2879Z" fill="#70164A"/>
<path d="M125.247 28.2381H127.223V29.0337C128.075 28.5333 128.867 28.2081 129.6 28.058V30.0846C128.857 30.2347 128.169 30.4098 127.535 30.61L127.238 30.7151V35.7441H125.247V28.2381Z" fill="#70164A"/>
<g filter="url(#filter0_i_46708_42697)">
<path d="M37.3534 35.5193C34.8795 37.1743 31.9789 38.3206 28.883 38.8666C26.3969 39.1538 23.8938 39.3259 21.385 39.3823V43.9985L7.32666 33.7401L21.385 23.4817V28.098C24.1433 28.208 26.8864 27.6943 29.3274 26.6104C32.4701 25.1873 35.0117 22.9836 36.6046 20.3015C37.5361 18.61 38.0124 16.7669 37.9996 14.9036C38.004 14.3421 37.967 13.7808 37.8882 13.2233C41.7359 15.9512 43.9692 19.9549 44.0006 24.1817C43.9352 28.6087 41.493 32.7744 37.3534 35.5193Z" fill="url(#paint0_linear_46708_42697)"/>
</g>
<g filter="url(#filter1_i_46708_42697)">
<mask id="mask0_46708_42697" style="mask-type:alpha" maskUnits="userSpaceOnUse" x="7" y="13" width="37" height="31">
<path d="M37.3529 35.5198C34.879 37.1748 31.9784 38.3211 28.8825 38.8671C26.3964 39.1543 23.8933 39.3264 21.3845 39.3827V43.999L7.32617 33.7406L21.3845 23.4822V28.0985C24.1428 28.2085 26.8859 27.6948 29.3269 26.6108C32.4696 25.1878 35.0113 22.9841 36.6041 20.302C37.5356 18.6105 38.0119 16.7674 37.9991 14.9041C38.0035 14.3426 37.9665 13.7813 37.8877 13.2238C41.7354 15.9517 43.9687 19.9554 44.0001 24.1822C43.9347 28.6092 41.4925 32.7749 37.3529 35.5198Z" fill="url(#paint1_linear_46708_42697)"/>
</mask>
<g mask="url(#mask0_46708_42697)">
<path d="M34.6143 22.6468L36.2027 20.677L34.8633 -0.582031L50.02 4.66977L57.3387 5.25224L56.1313 19.7095L52.2074 35.5339C50.1985 34.107 47.8057 33.3819 45.7968 31.955L41.7219 32.9596L44.018 30.7486L40.1067 31.5021L42.4229 29.1288L38.7542 30.2162L41.2083 27.6046L37.8555 28.535L40.0096 25.7825L36.7849 27.0695L39.2457 24.3305L36.1326 25.6645L38.3226 22.9419L35.3081 24.0171L37.2292 21.7497L34.6143 22.6468Z" fill="#F2F2F2"/>
</g>
</g>
<g filter="url(#filter2_i_46708_42697)">
<path d="M6.64903 8.47921C9.12291 6.82424 12.0236 5.67793 15.1194 5.13195C17.6055 4.84469 20.1087 4.67263 22.6175 4.61628V0L36.6758 10.2584L22.6175 20.5168V15.9005C19.8592 15.7906 17.1161 16.3042 14.675 17.3882C11.5323 18.8112 8.99069 21.0149 7.39785 23.697C6.46638 25.3885 5.99005 27.2316 6.00288 29.0949C5.99841 29.6564 6.03542 30.2177 6.11421 30.7752C2.26655 28.0473 0.033226 24.0436 0.00188828 19.8168C0.0672493 15.3899 2.50949 11.2241 6.64903 8.47921Z" fill="url(#paint2_linear_46708_42697)"/>
</g>
<g filter="url(#filter3_i_46708_42697)">
<mask id="mask1_46708_42697" style="mask-type:alpha" maskUnits="userSpaceOnUse" x="0" y="0" width="37" height="31">
<path d="M6.64903 8.47921C9.12291 6.82424 12.0236 5.67793 15.1194 5.13195C17.6055 4.84469 20.1087 4.67263 22.6175 4.61628V0L36.6758 10.2584L22.6175 20.5168V15.9005C19.8592 15.7906 17.1161 16.3042 14.675 17.3882C11.5323 18.8112 8.99069 21.0149 7.39785 23.697C6.46638 25.3885 5.99005 27.2316 6.00288 29.0949C5.99841 29.6564 6.03542 30.2177 6.11421 30.7752C2.26655 28.0473 0.033226 24.0436 0.00188828 19.8168C0.0672493 15.3899 2.50949 11.2241 6.64903 8.47921Z" fill="url(#paint3_linear_46708_42697)"/>
</mask>
<g mask="url(#mask1_46708_42697)">
<path d="M9.38765 21.3537L7.79927 23.3234L9.13867 44.5825L-6.01806 39.3307L-13.3368 38.7482L-12.1293 24.291L-8.20542 8.46662C-6.19658 9.89352 -3.80371 10.6186 -1.79487 12.0455L2.28006 11.0409L-0.0160352 13.2519L3.89529 12.4984L1.57901 14.8716L5.24779 13.7843L2.79366 16.3959L6.14645 15.4655L3.99237 18.218L7.21705 16.931L4.75623 19.67L7.86939 18.336L5.67933 21.0585L8.6939 19.9834L6.77276 22.2508L9.38765 21.3537Z" fill="#F2F2F2"/>
</g>
</g>
<defs>
<filter id="filter0_i_46708_42697" x="7.32666" y="13.2231" width="36.6738" height="34.7754" filterUnits="userSpaceOnUse" color-interpolation-filters="sRGB">
<feFlood flood-opacity="0" result="BackgroundImageFix"/>
<feBlend mode="normal" in="SourceGraphic" in2="BackgroundImageFix" result="shape"/>
<feColorMatrix in="SourceAlpha" type="matrix" values="0 0 0 0 0 0 0 0 0 0 0 0 0 0 0 0 0 0 127 0" result="hardAlpha"/>
<feOffset dy="4"/>
<feGaussianBlur stdDeviation="2"/>
<feComposite in2="hardAlpha" operator="arithmetic" k2="-1" k3="1"/>
<feColorMatrix type="matrix" values="0 0 0 0 0 0 0 0 0 0 0 0 0 0 0 0 0 0 0.25 0"/>
<feBlend mode="normal" in2="shape" result="effect1_innerShadow_46708_42697"/>
</filter>
<filter id="filter1_i_46708_42697" x="34.6143" y="13.2236" width="9.38574" height="23.3101" filterUnits="userSpaceOnUse" color-interpolation-filters="sRGB">
<feFlood flood-opacity="0" result="BackgroundImageFix"/>
<feBlend mode="normal" in="SourceGraphic" in2="BackgroundImageFix" result="shape"/>
<feColorMatrix in="SourceAlpha" type="matrix" values="0 0 0 0 0 0 0 0 0 0 0 0 0 0 0 0 0 0 127 0" result="hardAlpha"/>
<feOffset dy="1"/>
<feGaussianBlur stdDeviation="1"/>
<feComposite in2="hardAlpha" operator="arithmetic" k2="-1" k3="1"/>
<feColorMatrix type="matrix" values="0 0 0 0 0 0 0 0 0 0 0 0 0 0 0 0 0 0 0.25 0"/>
<feBlend mode="normal" in2="shape" result="effect1_innerShadow_46708_42697"/>
</filter>
<filter id="filter2_i_46708_42697" x="0.00195312" y="0" width="36.6738" height="34.7754" filterUnits="userSpaceOnUse" color-interpolation-filters="sRGB">
<feFlood flood-opacity="0" result="BackgroundImageFix"/>
<feBlend mode="normal" in="SourceGraphic" in2="BackgroundImageFix" result="shape"/>
<feColorMatrix in="SourceAlpha" type="matrix" values="0 0 0 0 0 0 0 0 0 0 0 0 0 0 0 0 0 0 127 0" result="hardAlpha"/>
<feOffset dy="4"/>
<feGaussianBlur stdDeviation="2"/>
<feComposite in2="hardAlpha" operator="arithmetic" k2="-1" k3="1"/>
<feColorMatrix type="matrix" values="0 0 0 0 0 0 0 0 0 0 0 0 0 0 0 0 0 0 0.25 0"/>
<feBlend mode="normal" in2="shape" result="effect1_innerShadow_46708_42697"/>
</filter>
<filter id="filter3_i_46708_42697" x="0.00195312" y="8.4668" width="9.38574" height="23.3086" filterUnits="userSpaceOnUse" color-interpolation-filters="sRGB">
<feFlood flood-opacity="0" result="BackgroundImageFix"/>
<feBlend mode="normal" in="SourceGraphic" in2="BackgroundImageFix" result="shape"/>
<feColorMatrix in="SourceAlpha" type="matrix" values="0 0 0 0 0 0 0 0 0 0 0 0 0 0 0 0 0 0 127 0" result="hardAlpha"/>
<feOffset dy="1"/>
<feGaussianBlur stdDeviation="1"/>
<feComposite in2="hardAlpha" operator="arithmetic" k2="-1" k3="1"/>
<feColorMatrix type="matrix" values="0 0 0 0 0 0 0 0 0 0 0 0 0 0 0 0 0 0 0.25 0"/>
<feBlend mode="normal" in2="shape" result="effect1_innerShadow_46708_42697"/>
</filter>
<linearGradient id="paint0_linear_46708_42697" x1="44.0006" y1="26.5306" x2="11.0988" y2="37.8313" gradientUnits="userSpaceOnUse">
<stop stop-color="#611241"/>
<stop offset="0.493561" stop-color="#9B2A62"/>
<stop offset="1" stop-color="#C73C7A"/>
</linearGradient>
<linearGradient id="paint1_linear_46708_42697" x1="25.6631" y1="43.999" x2="25.6631" y2="13.2238" gradientUnits="userSpaceOnUse">
<stop stop-color="#600E40"/>
<stop offset="1" stop-color="#822A57"/>
</linearGradient>
<linearGradient id="paint2_linear_46708_42697" x1="0.00188565" y1="17.4679" x2="32.9036" y2="6.16727" gradientUnits="userSpaceOnUse">
<stop stop-color="#611241"/>
<stop offset="0.493561" stop-color="#9B2A62"/>
<stop offset="1" stop-color="#C73C7A"/>
</linearGradient>
<linearGradient id="paint3_linear_46708_42697" x1="0.00188565" y1="17.4679" x2="32.9036" y2="6.16727" gradientUnits="userSpaceOnUse">
<stop stop-color="#611241"/>
<stop offset="0.493561" stop-color="#9B2A62"/>
<stop offset="1" stop-color="#C73C7A"/>
</linearGradient>
</defs>
</svg>
